<?xml version="1.0" encoding="UTF-8"?>
<svg id="Layer_1" data-name="Layer 1" xmlns="http://www.w3.org/2000/svg" viewBox="0 0 1080 1080">
  <defs>
    <style>
      .cls-1 {
        fill: #fff;
      }

      .cls-2 {
        fill: #5b1166;
      }
    </style>
  </defs>
  <rect class="cls-2" width="1080" height="1080"/>
  <g>
    <g>
      <path class="cls-1" d="M953.61,447.43c-25.61,0-48.79,10.41-65.53,27.24-18.34,18.44-42.75,29.56-68.76,29.56h-93.12c-4.91-25.75-15.08-49.68-29.31-70.57l64.78-64.78c18.96-18.96,44.81-28.62,71.62-28.84,26.6-.22,53.1-11.85,71.57-34.84,26.83-33.39,26.86-81.89.07-115.31-35.11-43.79-99.27-46.4-137.89-7.83-18.1,18.1-27.15,41.87-27.1,65.61.05,26.02-9.36,51.15-27.76,69.55l-65.9,65.9c-20.92-14.19-44.77-24.31-70.52-29.18v-91.7c0-26.5,10.87-51.69,29.63-70.41,17.94-17.89,28.56-43.1,27.02-70.76-2.58-46.37-40.23-84.25-86.58-87.08-53.76-3.29-98.37,39.32-98.37,92.37,0,25.61,10.41,48.79,27.24,65.55,18.44,18.35,29.56,42.78,29.56,68.8v93.24c-25.75,4.87-49.64,14.99-70.57,29.14l-65.86-65.86c-18.4-18.4-27.81-43.53-27.76-69.55.05-23.75-9-47.51-27.1-65.61-38.62-38.57-102.78-35.96-137.89,7.82-26.8,33.42-26.77,81.92.07,115.31,18.47,22.98,44.97,34.61,71.57,34.84,26.81.23,52.66,9.89,71.62,28.84l64.78,64.78c-14.23,20.88-24.4,44.81-29.31,70.57h-91.54c-26.54,0-51.72-10.93-70.48-29.7-17.82-17.83-42.89-28.41-70.43-26.96-46.39,2.44-84.38,40.03-87.31,86.4-3.4,53.85,39.24,98.57,92.32,98.57,25.64,0,48.83-10.41,65.59-27.24,18.36-18.44,42.79-29.56,68.8-29.56h92.98c4.87,25.84,14.99,49.77,29.23,70.73v.04l-65.69,65.69c-18.4,18.4-43.55,27.81-69.57,27.75-23.75-.06-47.5,8.98-65.6,27.11-36.13,36.13-36.13,94.71,0,130.84,36.13,36.17,94.71,36.17,130.88,0,18.1-18.1,27.15-41.85,27.1-65.6-.05-26.03,9.37-51.18,27.77-69.58l65.59-65.59c20.97,14.23,44.98,24.4,70.82,29.31v92.81c0,26.02-11.12,50.45-29.56,68.8-16.83,16.75-27.24,39.95-27.24,65.59,0,51.08,41.42,92.55,92.55,92.55s92.55-41.47,92.55-92.55c0-25.64-10.41-48.83-27.24-65.59-18.44-18.36-29.56-42.79-29.56-68.8v-92.81c25.84-4.91,49.81-15.08,70.78-29.35l65.63,65.63c18.41,18.41,27.82,43.55,27.77,69.58-.05,23.75,9,47.5,27.1,65.6,36.17,36.17,94.75,36.17,130.88,0,36.13-36.13,36.13-94.71,0-130.84-18.1-18.13-41.85-27.16-65.6-27.11-26.02.06-51.16-9.35-69.56-27.75l-65.7-65.73c14.23-20.97,24.35-44.9,29.23-70.73h91.45c26.51,0,51.7,10.89,70.43,29.66,18.95,18.98,46.1,29.77,75.68,26.59,42.59-4.57,76.97-38.79,81.72-81.37,6.23-55.83-37.33-103.18-91.95-103.18ZM547.69,658.84c-71.74,4.52-130.91-54.67-126.34-126.43,3.77-59.17,51.8-107.16,110.97-110.88,71.74-4.51,130.85,54.69,126.28,126.45-3.77,59.15-51.76,107.13-110.91,110.86Z"/>
      <circle class="cls-1" cx="540" cy="540" r="67.84"/>
    </g>
    <circle class="cls-2" cx="568.25" cy="512.5" r="12.79"/>
  </g>
</svg>