<?xml version="1.0" encoding="UTF-8"?>
<svg id="Layer_1" xmlns="http://www.w3.org/2000/svg" version="1.1" xmlns:xlink="http://www.w3.org/1999/xlink" viewBox="0 0 1080 347.59">
  <!-- Generator: Adobe Illustrator 30.1.0, SVG Export Plug-In . SVG Version: 2.1.1 Build 136)  -->
  <defs>
    <style>
      .st0 {
        fill: #fff;
      }

      .st1 {
        fill: #5b1166;
      }

      .st2 {
        fill: url(#linear-gradient);
      }
    </style>
    <linearGradient id="linear-gradient" x1="337.97" y1="173.79" x2="74.12" y2="173.79" gradientUnits="userSpaceOnUse">
      <stop offset="0" stop-color="#5b1166"/>
      <stop offset="1" stop-color="#e071f5"/>
    </linearGradient>
  </defs>
  <g>
    <g>
      <path class="st1" d="M409.32,171.05v-.26c0-25.79,20.34-46.91,48.33-46.91s48.07,20.86,48.07,46.65v.26c0,25.79-20.34,46.91-48.33,46.91s-48.07-20.86-48.07-46.65ZM484.86,171.05v-.26c0-15.55-11.4-28.51-27.47-28.51s-27.21,12.7-27.21,28.25v.26c0,15.55,11.4,28.51,27.47,28.51s27.21-12.7,27.21-28.25Z"/>
      <path class="st1" d="M518.03,181.81v-.26c0-19.83,15.16-36.15,36.41-36.15,13.09,0,21.12,4.41,27.73,11.66l-12.05,12.96c-4.54-4.66-8.68-7.65-15.81-7.65-9.85,0-16.85,8.55-16.85,18.92v.26c0,10.76,6.87,19.18,17.62,19.18,6.61,0,11.14-2.85,15.94-7.39l11.53,11.66c-6.74,7.39-14.51,12.7-28.38,12.7-20.86,0-36.15-16.2-36.15-35.89Z"/>
      <path class="st1" d="M598.63,196.45v-32.91h-8.29v-16.85h8.29v-17.75h19.7v17.75h16.33v16.85h-16.33v29.67c0,4.54,2.07,6.74,6.35,6.74,3.5,0,6.74-.78,9.72-2.46v15.81c-4.15,2.46-8.94,4.02-15.55,4.02-11.92,0-20.21-4.79-20.21-20.86Z"/>
      <path class="st1" d="M649.55,121.55h20.73v17.49h-20.73v-17.49ZM650.07,146.69h19.7v69.45h-19.7v-69.45Z"/>
      <path class="st1" d="M682.85,206.95l8.42-12.96c7.65,5.57,15.29,8.29,21.9,8.29,5.7,0,8.29-2.07,8.29-5.18v-.26c0-4.28-6.74-5.57-14.38-8.03-9.72-2.72-20.73-7.39-20.73-20.86v-.26c0-14.12,11.4-22.03,25.4-22.03,8.81,0,18.27,2.98,25.92,8.03l-7.52,13.61c-6.87-4.02-13.74-6.48-18.79-6.48s-7.26,2.07-7.26,4.79v.26c0,3.63,6.61,5.96,14.12,8.29,9.72,3.11,20.99,7.9,20.99,20.6v.26c0,15.42-11.53,22.42-26.56,22.42-9.85,0-20.47-3.24-29.8-10.5Z"/>
      <path class="st1" d="M753.72,121.55h20.73v17.49h-20.73v-17.49ZM754.24,146.69h19.7v69.45h-19.7v-69.45Z"/>
      <path class="st1" d="M792.85,229.88l6.74-14.77c7.26,4.02,14.12,6.35,23.45,6.35,13.48,0,19.83-6.48,19.83-18.92v-3.37c-5.83,7.13-12.18,11.27-22.68,11.27-16.2,0-30.84-11.66-30.84-32.39v-.26c0-20.73,14.9-32.39,30.84-32.39,10.75,0,17.1,4.54,22.42,10.37v-9.07h19.7v53.77c0,12.31-2.98,21.51-8.81,27.34-6.61,6.61-16.46,9.33-29.93,9.33-11.4,0-21.9-2.59-30.71-7.26ZM842.87,178.05v-.26c0-9.46-7.26-16.07-16.97-16.07s-16.84,6.61-16.84,16.07v.26c0,9.72,7.13,16.07,16.84,16.07s16.97-6.61,16.97-16.07Z"/>
      <path class="st1" d="M879.93,121.55h19.7v34.99c4.54-5.83,10.5-11.14,20.34-11.14,15.03,0,23.58,9.72,23.58,25.79v44.96h-19.7v-38.74c0-9.33-4.28-14.12-11.92-14.12s-12.31,4.79-12.31,14.12v38.74h-19.7v-94.59Z"/>
      <path class="st1" d="M963.89,196.45v-32.91h-8.29v-16.85h8.29v-17.75h19.7v17.75h16.33v16.85h-16.33v29.67c0,4.54,2.07,6.74,6.35,6.74,3.5,0,6.74-.78,9.72-2.46v15.81c-4.15,2.46-8.94,4.02-15.55,4.02-11.92,0-20.21-4.79-20.21-20.86Z"/>
    </g>
    <g>
      <path d="M409.59,280.18l1.93-2.28c2.87,2.63,5.62,3.89,9.44,3.89s6.13-1.97,6.13-4.68v-.08c0-2.56-1.38-3.97-7.16-5.23-6.33-1.38-9.24-3.42-9.24-7.94v-.08c0-4.29,3.81-7.51,9.04-7.51,4.05,0,6.84,1.14,9.67,3.38l-1.81,2.4c-2.56-2.08-5.11-2.99-7.94-2.99-3.62,0-5.86,1.93-5.86,4.44v.08c0,2.59,1.38,4.09,7.47,5.35,6.13,1.38,8.97,3.58,8.97,7.79v.08c0,4.72-3.93,7.79-9.4,7.79-4.4,0-7.94-1.42-11.25-4.4Z"/>
      <path d="M434.79,274.09v-.08c0-5.86,4.09-10.58,9.75-10.58,6.02,0,9.48,4.8,9.48,10.73,0,.43,0,.63-.04.98h-16.12c.43,4.4,3.54,6.88,7.16,6.88,2.83,0,4.72-1.14,6.41-2.87l1.89,1.69c-2.04,2.32-4.48,3.81-8.38,3.81-5.54,0-10.15-4.29-10.15-10.58ZM450.95,272.91c-.31-3.66-2.4-6.92-6.49-6.92-3.58,0-6.17,2.99-6.61,6.92h13.09Z"/>
      <path d="M458.07,274.13v-.08c0-5.78,4.44-10.62,10.42-10.62,3.85,0,6.21,1.57,8.14,3.62l-2.01,2.12c-1.61-1.69-3.38-3.07-6.17-3.07-4.13,0-7.27,3.46-7.27,7.86v.08c0,4.4,3.22,7.9,7.47,7.9,2.63,0,4.6-1.3,6.21-3.03l1.93,1.81c-2.04,2.32-4.48,3.93-8.3,3.93-5.98,0-10.42-4.84-10.42-10.54Z"/>
      <path d="M481.3,276.49v-12.62h3.03v11.88c0,3.77,2.01,6.13,5.62,6.13s6.1-2.56,6.1-6.37v-11.64h2.99v20.33h-2.99v-3.54c-1.38,2.2-3.46,3.97-6.96,3.97-4.88,0-7.79-3.3-7.79-8.14Z"/>
      <path d="M505.84,263.86h3.03v5.31c1.49-3.38,4.44-5.78,8.3-5.66v3.26h-.24c-4.44,0-8.06,3.19-8.06,9.32v8.1h-3.03v-20.33Z"/>
      <path d="M521.84,256.08h3.46v3.34h-3.46v-3.34ZM522.03,263.86h3.03v20.33h-3.03v-20.33Z"/>
      <path d="M533.16,278.81v-12.27h-2.83v-2.67h2.83v-6.13h3.03v6.13h6.45v2.67h-6.45v11.88c0,2.52,1.38,3.38,3.42,3.38,1.06,0,1.89-.2,2.95-.71v2.6c-1.06.59-2.2.86-3.66.86-3.3,0-5.74-1.61-5.74-5.74Z"/>
      <path d="M563.2,263.86h3.22l-8.53,21c-1.73,4.21-3.74,5.74-6.76,5.74-1.69,0-2.95-.35-4.33-1.02l1.02-2.4c.98.51,1.89.75,3.19.75,1.85,0,2.95-.94,4.17-3.81l-9.24-20.25h3.34l7.39,16.95,6.53-16.95Z"/>
      <path d="M566.3,287.61c2.01-.75,2.79-1.73,2.63-3.42h-1.42v-4.13h3.62v3.54c0,3.19-1.38,4.72-4.36,5.39l-.47-1.38Z"/>
      <path d="M590.44,266.54h-2.79v-2.63h2.79v-1.77c0-2.32.59-4.05,1.77-5.23,1.06-1.06,2.52-1.57,4.36-1.57,1.42,0,2.36.16,3.34.51v2.63c-1.1-.31-1.89-.51-2.95-.51-2.36,0-3.54,1.46-3.54,4.33v1.65h6.45v2.6h-6.41v17.66h-3.03v-17.66Z"/>
      <path d="M603.73,263.86h3.03v5.31c1.49-3.38,4.44-5.78,8.3-5.66v3.26h-.24c-4.44,0-8.06,3.19-8.06,9.32v8.1h-3.03v-20.33Z"/>
      <path d="M617.53,274.13v-.08c0-5.78,4.44-10.62,10.62-10.62s10.58,4.8,10.58,10.54v.08c0,5.78-4.52,10.62-10.66,10.62s-10.54-4.8-10.54-10.54ZM635.62,274.13v-.08c0-4.36-3.26-7.94-7.55-7.94s-7.43,3.58-7.43,7.86v.08c0,4.37,3.22,7.9,7.51,7.9s7.47-3.58,7.47-7.83Z"/>
      <path d="M644.18,263.86h3.03v3.42c1.38-2.04,3.15-3.85,6.57-3.85s5.43,1.73,6.53,4.05c1.49-2.24,3.58-4.05,7.16-4.05,4.72,0,7.55,3.11,7.55,8.18v12.58h-3.03v-11.88c0-3.93-1.97-6.13-5.27-6.13-3.03,0-5.62,2.28-5.62,6.29v11.72h-2.99v-11.95c0-3.81-1.97-6.06-5.23-6.06s-5.66,2.67-5.66,6.41v11.6h-3.03v-20.33Z"/>
      <path d="M693.33,256.08h3.46v3.34h-3.46v-3.34ZM693.52,263.86h3.03v20.33h-3.03v-20.33Z"/>
      <path d="M703.59,263.86h3.03v3.54c1.38-2.2,3.46-3.97,6.96-3.97,4.88,0,7.79,3.3,7.79,8.14v12.62h-3.03v-11.88c0-3.78-2.01-6.13-5.62-6.13s-6.09,2.56-6.09,6.37v11.64h-3.03v-20.33Z"/>
      <path d="M726.12,281.6l1.53-2.16c2.2,1.69,4.64,2.59,7.04,2.59s4.21-1.22,4.21-3.22v-.08c0-2-2.4-2.83-5.07-3.58-3.15-.94-6.72-1.97-6.72-5.74v-.08c0-3.5,2.91-5.82,6.92-5.82,2.52,0,5.23.87,7.31,2.24l-1.38,2.28c-1.89-1.22-4.01-1.97-6.02-1.97-2.4,0-3.93,1.26-3.93,2.95v.08c0,1.93,2.52,2.67,5.23,3.5,3.15.94,6.53,2.16,6.53,5.82v.08c0,3.85-3.19,6.1-7.23,6.1-2.95,0-6.1-1.14-8.42-2.99Z"/>
      <path d="M747.46,256.08h3.46v3.34h-3.46v-3.34ZM747.66,263.86h3.03v20.33h-3.03v-20.33Z"/>
      <path d="M757.49,287.73l1.38-2.36c2.36,1.69,4.88,2.6,7.83,2.6,4.52,0,7.39-2.48,7.39-7.24v-2.4c-1.77,2.36-4.25,4.29-7.98,4.29-4.88,0-9.56-3.7-9.56-9.52v-.08c0-5.94,4.68-9.59,9.56-9.59,3.81,0,6.25,1.89,7.94,4.09v-3.66h3.03v16.79c0,3.15-.9,5.5-2.6,7.2-1.85,1.85-4.48,2.71-7.75,2.71s-6.53-.94-9.24-2.83ZM774.16,273.07v-.08c0-4.17-3.62-6.88-7.47-6.88s-7.04,2.67-7.04,6.84v.08c0,4.09,3.26,6.92,7.04,6.92s7.47-2.79,7.47-6.88Z"/>
      <path d="M783.83,255.49h3.03v11.92c1.38-2.2,3.46-3.97,6.96-3.97,4.88,0,7.79,3.3,7.79,8.14v12.62h-3.03v-11.88c0-3.78-2.01-6.13-5.62-6.13s-6.09,2.56-6.09,6.37v11.64h-3.03v-28.71Z"/>
      <path d="M809.11,278.81v-12.27h-2.83v-2.67h2.83v-6.13h3.03v6.13h6.45v2.67h-6.45v11.88c0,2.52,1.38,3.38,3.42,3.38,1.06,0,1.89-.2,2.95-.71v2.6c-1.06.59-2.2.86-3.66.86-3.3,0-5.74-1.61-5.74-5.74Z"/>
      <path d="M836.79,278.81v-12.27h-2.83v-2.67h2.83v-6.13h3.03v6.13h6.45v2.67h-6.45v11.88c0,2.52,1.38,3.38,3.42,3.38,1.06,0,1.89-.2,2.95-.71v2.6c-1.06.59-2.2.86-3.66.86-3.3,0-5.74-1.61-5.74-5.74Z"/>
      <path d="M849.76,274.13v-.08c0-5.78,4.44-10.62,10.62-10.62s10.58,4.8,10.58,10.54v.08c0,5.78-4.52,10.62-10.66,10.62s-10.54-4.8-10.54-10.54ZM867.85,274.13v-.08c0-4.36-3.26-7.94-7.55-7.94s-7.43,3.58-7.43,7.86v.08c0,4.37,3.22,7.9,7.51,7.9s7.47-3.58,7.47-7.83Z"/>
      <path d="M886.68,278.3v-.08c0-4.25,3.54-6.57,8.69-6.57,2.63,0,4.4.35,6.25.87v-.71c0-3.66-2.24-5.54-6.06-5.54-2.4,0-4.29.59-6.17,1.49l-.9-2.48c2.24-1.06,4.4-1.69,7.39-1.69s5.07.75,6.57,2.24c1.38,1.38,2.08,3.38,2.08,5.94v12.43h-2.91v-3.07c-1.42,1.85-3.74,3.5-7.35,3.5s-7.59-2.12-7.59-6.33ZM901.66,276.72v-1.97c-1.53-.43-3.46-.87-5.98-.87-3.81,0-5.94,1.65-5.94,4.21v.08c0,2.56,2.4,4.05,5.11,4.05,3.77,0,6.8-2.28,6.8-5.5Z"/>
      <path d="M909.71,274.13v-.08c0-5.78,4.44-10.62,10.42-10.62,3.85,0,6.21,1.57,8.14,3.62l-2.01,2.12c-1.61-1.69-3.38-3.07-6.17-3.07-4.13,0-7.27,3.46-7.27,7.86v.08c0,4.4,3.22,7.9,7.47,7.9,2.63,0,4.6-1.3,6.21-3.03l1.93,1.81c-2.04,2.32-4.48,3.93-8.3,3.93-5.98,0-10.42-4.84-10.42-10.54Z"/>
      <path d="M934.48,278.81v-12.27h-2.83v-2.67h2.83v-6.13h3.03v6.13h6.45v2.67h-6.45v11.88c0,2.52,1.38,3.38,3.42,3.38,1.06,0,1.89-.2,2.95-.71v2.6c-1.06.59-2.2.86-3.66.86-3.3,0-5.74-1.61-5.74-5.74Z"/>
      <path d="M949.38,256.08h3.46v3.34h-3.46v-3.34ZM949.58,263.86h3.03v20.33h-3.03v-20.33Z"/>
      <path d="M958.39,274.13v-.08c0-5.78,4.44-10.62,10.62-10.62s10.58,4.8,10.58,10.54v.08c0,5.78-4.52,10.62-10.66,10.62s-10.54-4.8-10.54-10.54ZM976.47,274.13v-.08c0-4.36-3.26-7.94-7.55-7.94s-7.43,3.58-7.43,7.86v.08c0,4.37,3.22,7.9,7.51,7.9s7.47-3.58,7.47-7.83Z"/>
      <path d="M985.04,263.86h3.03v3.54c1.38-2.2,3.46-3.97,6.96-3.97,4.88,0,7.79,3.3,7.79,8.14v12.62h-3.03v-11.88c0-3.78-2.01-6.13-5.62-6.13s-6.09,2.56-6.09,6.37v11.64h-3.03v-20.33Z"/>
    </g>
    <circle class="st1" cx="457.44" cy="170.6" r="13.6"/>
  </g>
  <g>
    <g>
      <path class="st2" d="M313.85,149.67c-6.68,0-12.72,2.71-17.08,7.1-4.78,4.81-11.14,7.7-17.92,7.7h-24.27c-1.28-6.71-3.93-12.95-7.64-18.39l16.88-16.88c4.94-4.94,11.68-7.46,18.67-7.52,6.93-.06,13.84-3.09,18.65-9.08,6.99-8.7,7-21.35.02-30.06-9.15-11.41-25.87-12.09-35.94-2.04-4.72,4.72-7.08,10.91-7.06,17.1.01,6.78-2.44,13.33-7.23,18.13l-17.18,17.18c-5.45-3.7-11.67-6.34-18.38-7.61v-23.9c0-6.91,2.83-13.47,7.72-18.35,4.68-4.66,7.44-11.23,7.04-18.44-.67-12.09-10.49-21.96-22.57-22.7-14.01-.86-25.64,10.25-25.64,24.08,0,6.68,2.71,12.72,7.1,17.08,4.81,4.78,7.7,11.15,7.7,17.93v24.3c-6.71,1.27-12.94,3.91-18.39,7.6l-17.17-17.17c-4.79-4.79-7.25-11.35-7.23-18.13.01-6.19-2.35-12.38-7.06-17.1-10.07-10.05-26.79-9.37-35.94,2.04-6.98,8.71-6.98,21.35.02,30.06,4.81,5.99,11.72,9.02,18.65,9.08,6.99.06,13.73,2.58,18.67,7.52l16.88,16.88c-3.71,5.44-6.36,11.68-7.64,18.39h-23.86c-6.92,0-13.48-2.85-18.37-7.74-4.64-4.65-11.18-7.41-18.36-7.03-12.09.64-21.99,10.43-22.76,22.52-.89,14.04,10.23,25.69,24.06,25.69,6.68,0,12.73-2.71,17.09-7.1,4.78-4.81,11.15-7.7,17.93-7.7h24.23c1.27,6.73,3.91,12.97,7.62,18.44h0s-17.12,17.13-17.12,17.13c-4.8,4.8-11.35,7.25-18.13,7.23-6.19-.01-12.38,2.34-17.1,7.07-9.42,9.42-9.42,24.68,0,34.1,9.42,9.43,24.68,9.43,34.11,0,4.72-4.72,7.08-10.91,7.06-17.1-.01-6.78,2.44-13.34,7.24-18.14l17.1-17.1c5.46,3.71,11.72,6.36,18.46,7.64v24.19c0,6.78-2.9,13.15-7.7,17.93-4.39,4.37-7.1,10.41-7.1,17.09,0,13.31,10.8,24.12,24.12,24.12s24.12-10.81,24.12-24.12c0-6.68-2.71-12.73-7.1-17.09-4.81-4.78-7.7-11.15-7.7-17.93v-24.19c6.73-1.28,12.98-3.93,18.45-7.65l17.11,17.11c4.8,4.8,7.25,11.35,7.24,18.14-.01,6.19,2.35,12.38,7.06,17.1,9.43,9.43,24.7,9.43,34.11,0,9.42-9.42,9.42-24.68,0-34.1-4.72-4.72-10.91-7.08-17.1-7.07-6.78.02-13.34-2.44-18.13-7.23l-17.12-17.13c3.71-5.46,6.35-11.7,7.62-18.44h23.83c6.91,0,13.47,2.84,18.36,7.73,4.94,4.95,12.02,7.76,19.73,6.93,11.1-1.19,20.06-10.11,21.3-21.21,1.62-14.55-9.73-26.89-23.97-26.89ZM208.05,204.77c-18.7,1.18-34.12-14.25-32.93-32.95.98-15.42,13.5-27.93,28.92-28.9,18.7-1.17,34.1,14.25,32.91,32.96-.98,15.42-13.49,27.92-28.91,28.89Z"/>
      <circle class="st1" cx="206.05" cy="173.79" r="17.68"/>
    </g>
    <circle class="st0" cx="213.41" cy="166.63" r="3.33"/>
  </g>
  <circle class="st0" cx="466.43" cy="165.5" r="2.46"/>
</svg>